<svg width="166" height="16" viewBox="0 0 166 16" fill="none" xmlns="http://www.w3.org/2000/svg">
<path d="M4.64453 0.78125C5.90755 0.78125 7.02409 1.0612 7.99414 1.62109C8.96419 2.18099 9.71615 2.97201 10.25 3.99414C10.7904 5.01628 11.0605 6.20117 11.0605 7.54883V8.24219C11.0605 9.59635 10.7904 10.7845 10.25 11.8066C9.71615 12.8223 8.95768 13.61 7.97461 14.1699C6.99154 14.7233 5.84896 15 4.54688 15H1.53906H0.425781V0.78125H2.95508H4.64453ZM8.52148 7.5293C8.52148 6.00586 8.18945 4.84049 7.52539 4.0332C6.86133 3.22591 5.90104 2.82227 4.64453 2.82227H2.95508V12.9688H4.54688C5.84896 12.9688 6.83529 12.5586 7.50586 11.7383C8.18294 10.9115 8.52148 9.74609 8.52148 8.24219V7.5293ZM12.8281 9.61914C12.8281 8.59049 13.0234 7.66927 13.4141 6.85547C13.8112 6.04167 14.3809 5.40365 15.123 4.94141C15.8652 4.47266 16.7376 4.23828 17.7402 4.23828C18.7559 4.23828 19.6348 4.47266 20.377 4.94141C21.1257 5.40365 21.6953 6.04167 22.0859 6.85547C22.4831 7.66927 22.6816 8.59049 22.6816 9.61914V9.82422C22.6816 10.8529 22.4831 11.7741 22.0859 12.5879C21.6953 13.4017 21.1289 14.0397 20.3867 14.502C19.6445 14.9642 18.7689 15.1953 17.7598 15.1953C16.7507 15.1953 15.8717 14.9642 15.123 14.502C14.3809 14.0397 13.8112 13.4017 13.4141 12.5879C13.0234 11.7741 12.8281 10.8529 12.8281 9.82422V9.61914ZM15.2598 9.82422C15.2598 10.8268 15.4681 11.6471 15.8848 12.2852C16.3014 12.9232 16.9264 13.2422 17.7598 13.2422C18.3132 13.2422 18.7754 13.0924 19.1465 12.793C19.5241 12.487 19.8008 12.0768 19.9766 11.5625C20.1589 11.0482 20.25 10.4688 20.25 9.82422V9.61914C20.25 8.98112 20.1589 8.40495 19.9766 7.89062C19.8008 7.36979 19.5241 6.95638 19.1465 6.65039C18.7689 6.3444 18.3001 6.19141 17.7402 6.19141C17.1868 6.19141 16.7246 6.3444 16.3535 6.65039C15.9824 6.95638 15.7057 7.36979 15.5234 7.89062C15.3477 8.40495 15.2598 8.98112 15.2598 9.61914V9.82422ZM37.9355 4.43359L35.0742 15H33.5312H33.0723L30.8359 7.83203L28.6387 15H27.2617H26.6367L23.7754 4.43359H26.1387L27.8086 11.5723L29.9473 4.43359H31.5H31.7637L33.9219 11.6602L35.5723 4.43359H37.9355ZM44.8984 4.23828C45.9727 4.23828 46.7995 4.55078 47.3789 5.17578C47.9648 5.79427 48.2578 6.79688 48.2578 8.18359V15H45.8262V8.16406C45.8262 7.46094 45.6732 6.96289 45.3672 6.66992C45.0677 6.37044 44.6055 6.2207 43.9805 6.2207C43.5247 6.2207 43.1178 6.33138 42.7598 6.55273C42.4017 6.77409 42.1152 7.08333 41.9004 7.48047V15H39.4688V4.43359H41.7539L41.832 5.6543C42.2096 5.19857 42.6589 4.85026 43.1797 4.60938C43.7005 4.36198 44.2734 4.23828 44.8984 4.23828ZM50.7871 15V0H53.2188V15H50.7871ZM55.3281 9.61914C55.3281 8.59049 55.5234 7.66927 55.9141 6.85547C56.3112 6.04167 56.8809 5.40365 57.623 4.94141C58.3652 4.47266 59.2376 4.23828 60.2402 4.23828C61.2559 4.23828 62.1348 4.47266 62.877 4.94141C63.6257 5.40365 64.1953 6.04167 64.5859 6.85547C64.9831 7.66927 65.1816 8.59049 65.1816 9.61914V9.82422C65.1816 10.8529 64.9831 11.7741 64.5859 12.5879C64.1953 13.4017 63.6289 14.0397 62.8867 14.502C62.1445 14.9642 61.2689 15.1953 60.2598 15.1953C59.2507 15.1953 58.3717 14.9642 57.623 14.502C56.8809 14.0397 56.3112 13.4017 55.9141 12.5879C55.5234 11.7741 55.3281 10.8529 55.3281 9.82422V9.61914ZM57.7598 9.82422C57.7598 10.8268 57.9681 11.6471 58.3848 12.2852C58.8014 12.9232 59.4264 13.2422 60.2598 13.2422C60.8132 13.2422 61.2754 13.0924 61.6465 12.793C62.0241 12.487 62.3008 12.0768 62.4766 11.5625C62.6589 11.0482 62.75 10.4688 62.75 9.82422V9.61914C62.75 8.98112 62.6589 8.40495 62.4766 7.89062C62.3008 7.36979 62.0241 6.95638 61.6465 6.65039C61.2689 6.3444 60.8001 6.19141 60.2402 6.19141C59.6868 6.19141 59.2246 6.3444 58.8535 6.65039C58.4824 6.95638 58.2057 7.36979 58.0234 7.89062C57.8477 8.40495 57.7598 8.98112 57.7598 9.61914V9.82422ZM75.5234 12.5391C75.5234 13.5026 75.6569 14.2676 75.9238 14.834V15H73.4434C73.3392 14.7721 73.248 14.4434 73.1699 14.0137C72.8379 14.3717 72.4408 14.6582 71.9785 14.873C71.5163 15.0879 70.9922 15.1953 70.4062 15.1953C69.7161 15.1953 69.0977 15.0586 68.5508 14.7852C68.0039 14.5117 67.5775 14.1341 67.2715 13.6523C66.9655 13.1706 66.8125 12.6302 66.8125 12.0312C66.8125 10.9049 67.2292 10.0423 68.0625 9.44336C68.9023 8.8444 70.0905 8.54492 71.627 8.54492H73.0918V7.86133C73.0918 7.30143 72.9388 6.86523 72.6328 6.55273C72.3268 6.23372 71.8743 6.07422 71.2754 6.07422C70.9173 6.07422 70.6016 6.13607 70.3281 6.25977C70.0547 6.38346 69.8431 6.55273 69.6934 6.76758C69.5436 6.98242 69.4688 7.22331 69.4688 7.49023H67.0371C67.0371 6.92383 67.2161 6.39323 67.5742 5.89844C67.9388 5.39714 68.4531 4.99674 69.1172 4.69727C69.7878 4.39128 70.5527 4.23828 71.4121 4.23828C72.2194 4.23828 72.9323 4.375 73.5508 4.64844C74.1693 4.92188 74.651 5.33203 74.9961 5.87891C75.3477 6.42578 75.5234 7.0931 75.5234 7.88086V12.5391ZM70.875 13.252C71.3828 13.252 71.832 13.1315 72.2227 12.8906C72.6198 12.6497 72.9095 12.36 73.0918 12.0215V10.0488H71.8223C70.9759 10.0488 70.3346 10.2018 69.8984 10.5078C69.4622 10.8138 69.2441 11.2435 69.2441 11.7969C69.2441 12.2266 69.3874 12.5781 69.6738 12.8516C69.9603 13.1185 70.3607 13.252 70.875 13.252ZM86.8223 0V15H84.625L84.5078 13.8965C83.8047 14.7624 82.8639 15.1953 81.6855 15.1953C80.8522 15.1953 80.1198 14.9642 79.4883 14.502C78.8633 14.0397 78.3815 13.4017 78.043 12.5879C77.7044 11.7741 77.5352 10.8561 77.5352 9.83398V9.62891C77.5352 8.5612 77.7012 7.62044 78.0332 6.80664C78.3717 5.99284 78.8535 5.36133 79.4785 4.91211C80.11 4.46289 80.8522 4.23828 81.7051 4.23828C82.8118 4.23828 83.707 4.62565 84.3906 5.40039V0H86.8223ZM82.3008 13.2031C83.2643 13.2031 83.9609 12.7799 84.3906 11.9336V7.46094C83.9674 6.63411 83.2773 6.2207 82.3203 6.2207C81.526 6.2207 80.9336 6.53646 80.543 7.16797C80.1589 7.79948 79.9668 8.61979 79.9668 9.62891V9.83398C79.9668 10.8366 80.1556 11.6504 80.5332 12.2754C80.9173 12.8939 81.5065 13.2031 82.3008 13.2031ZM105.26 14.873V15H102.545L99.7227 9.55078H97.0176V15H94.4883V0.78125H99.5273C101.168 0.78125 102.434 1.14909 103.326 1.88477C104.225 2.62044 104.674 3.68164 104.674 5.06836C104.674 6.00586 104.449 6.80013 104 7.45117C103.551 8.10221 102.913 8.60352 102.086 8.95508L105.26 14.873ZM97.0176 7.51953H99.5371C100.383 7.51953 101.028 7.30794 101.471 6.88477C101.92 6.46159 102.145 5.89844 102.145 5.19531C102.145 4.44661 101.93 3.86393 101.5 3.44727C101.07 3.0306 100.413 2.82227 99.5273 2.82227H97.0176V7.51953ZM115.738 10.4785H108.854C108.899 11.0189 109.039 11.4974 109.273 11.9141C109.508 12.3307 109.824 12.6562 110.221 12.8906C110.624 13.125 111.093 13.2422 111.627 13.2422C112.721 13.2422 113.6 12.8125 114.264 11.9531L115.562 13.2129C115.178 13.7793 114.645 14.2513 113.961 14.6289C113.277 15.0065 112.451 15.1953 111.48 15.1953C110.452 15.1953 109.553 14.974 108.785 14.5312C108.017 14.082 107.428 13.4701 107.018 12.6953C106.607 11.9206 106.402 11.0514 106.402 10.0879V9.6875C106.402 8.60026 106.611 7.64648 107.027 6.82617C107.444 5.99935 108.017 5.36133 108.746 4.91211C109.475 4.46289 110.296 4.23828 111.207 4.23828C112.203 4.23828 113.04 4.45638 113.717 4.89258C114.394 5.32878 114.898 5.94076 115.23 6.72852C115.569 7.50977 115.738 8.41797 115.738 9.45312V10.4785ZM113.336 8.53516C113.303 7.85156 113.118 7.29167 112.779 6.85547C112.441 6.41276 111.913 6.19141 111.197 6.19141C110.559 6.19141 110.045 6.41276 109.654 6.85547C109.264 7.29818 109.013 7.91992 108.902 8.7207H113.336V8.53516ZM121.197 10.5859C119.986 10.332 119.052 9.95768 118.395 9.46289C117.737 8.9681 117.408 8.29753 117.408 7.45117C117.408 6.87174 117.574 6.33789 117.906 5.84961C118.245 5.35482 118.723 4.96419 119.342 4.67773C119.967 4.38477 120.686 4.23828 121.5 4.23828C122.366 4.23828 123.118 4.38477 123.756 4.67773C124.4 4.9707 124.895 5.37435 125.24 5.88867C125.585 6.39648 125.758 6.9694 125.758 7.60742H123.326C123.326 7.32747 123.255 7.07031 123.111 6.83594C122.975 6.59505 122.77 6.40299 122.496 6.25977C122.223 6.11654 121.891 6.04492 121.5 6.04492C120.947 6.04492 120.52 6.16862 120.221 6.41602C119.921 6.66341 119.771 6.97266 119.771 7.34375C119.771 7.57812 119.833 7.77669 119.957 7.93945C120.087 8.10221 120.309 8.2487 120.621 8.37891C120.934 8.50911 121.367 8.63281 121.92 8.75C122.779 8.93229 123.492 9.15365 124.059 9.41406C124.625 9.67448 125.061 10.013 125.367 10.4297C125.673 10.8464 125.826 11.3672 125.826 11.9922C125.826 12.6107 125.647 13.1641 125.289 13.6523C124.938 14.1406 124.436 14.5215 123.785 14.7949C123.134 15.0618 122.382 15.1953 121.529 15.1953C120.605 15.1953 119.804 15.026 119.127 14.6875C118.45 14.349 117.936 13.9095 117.584 13.3691C117.232 12.8288 117.057 12.2591 117.057 11.6602H119.41C119.436 12.2526 119.654 12.6888 120.064 12.9688C120.481 13.2487 120.982 13.3887 121.568 13.3887C122.161 13.3887 122.62 13.2747 122.945 13.0469C123.277 12.8125 123.443 12.5033 123.443 12.1191C123.443 11.8717 123.385 11.6602 123.268 11.4844C123.15 11.3086 122.926 11.1458 122.594 10.9961C122.268 10.8464 121.803 10.7096 121.197 10.5859ZM136.627 4.43359V15H134.332L134.273 13.9551C133.583 14.7819 132.597 15.1953 131.314 15.1953C130.221 15.1953 129.365 14.8763 128.746 14.2383C128.128 13.6003 127.818 12.6074 127.818 11.2598V4.43359H130.25V11.2793C130.25 11.9694 130.4 12.4642 130.699 12.7637C131.005 13.0566 131.406 13.2031 131.9 13.2031C133.027 13.2031 133.788 12.8027 134.186 12.002V4.43359H136.627ZM150.543 4.23828C151.663 4.23828 152.519 4.55404 153.111 5.18555C153.704 5.81055 154 6.80339 154 8.16406V15H151.568V8.1543C151.568 7.43164 151.412 6.93034 151.1 6.65039C150.794 6.36393 150.331 6.2207 149.713 6.2207C149.205 6.2207 148.779 6.35742 148.434 6.63086C148.095 6.9043 147.854 7.27214 147.711 7.73438L147.721 7.95898V15H145.289V8.18359C145.289 7.47396 145.13 6.9694 144.811 6.66992C144.498 6.37044 144.036 6.2207 143.424 6.2207C142.493 6.2207 141.832 6.60156 141.441 7.36328V15H139.01V4.43359H141.295L141.373 5.54688C141.731 5.1237 142.164 4.80143 142.672 4.58008C143.186 4.35221 143.769 4.23828 144.42 4.23828C145.084 4.23828 145.663 4.37174 146.158 4.63867C146.653 4.89909 147.034 5.30273 147.301 5.84961C147.659 5.3418 148.111 4.94792 148.658 4.66797C149.205 4.38151 149.833 4.23828 150.543 4.23828ZM165.348 10.4785H158.463C158.508 11.0189 158.648 11.4974 158.883 11.9141C159.117 12.3307 159.433 12.6562 159.83 12.8906C160.234 13.125 160.702 13.2422 161.236 13.2422C162.33 13.2422 163.209 12.8125 163.873 11.9531L165.172 13.2129C164.788 13.7793 164.254 14.2513 163.57 14.6289C162.887 15.0065 162.06 15.1953 161.09 15.1953C160.061 15.1953 159.163 14.974 158.395 14.5312C157.626 14.082 157.037 13.4701 156.627 12.6953C156.217 11.9206 156.012 11.0514 156.012 10.0879V9.6875C156.012 8.60026 156.22 7.64648 156.637 6.82617C157.053 5.99935 157.626 5.36133 158.355 4.91211C159.085 4.46289 159.905 4.23828 160.816 4.23828C161.812 4.23828 162.649 4.45638 163.326 4.89258C164.003 5.32878 164.508 5.94076 164.84 6.72852C165.178 7.50977 165.348 8.41797 165.348 9.45312V10.4785ZM162.945 8.53516C162.913 7.85156 162.727 7.29167 162.389 6.85547C162.05 6.41276 161.523 6.19141 160.807 6.19141C160.169 6.19141 159.654 6.41276 159.264 6.85547C158.873 7.29818 158.622 7.91992 158.512 8.7207H162.945V8.53516Z" fill="white"/>
</svg>
